<?xml version="1.0" encoding="iso-8859-1"?>
<!-- Generator: Adobe Illustrator 19.0.0, SVG Export Plug-In . SVG Version: 6.00 Build 0)  -->
<svg version="1.1" id="Capa_1" xmlns="http://www.w3.org/2000/svg" xmlns:xlink="http://www.w3.org/1999/xlink" x="0px" y="0px"
	 viewBox="0 0 512 512" style="enable-background:new 0 0 512 512;" xml:space="preserve">
<rect x="38" y="167.88" style="fill:#B1FFFF;" width="436" height="306"/>
<g>
	<path style="fill:#304FFE;" d="M441.52,129.88L256,0.12L70.48,129.88H0v382h512v-382H441.52z M256,19.64l157.6,110.24H98.4
		L256,19.64z M496,495.88H16v-350h480V495.88z"/>
	<rect x="78.1" y="205.98" style="fill:#304FFE;" width="16" height="67.39"/>
	<rect x="232.31" y="205.98" style="fill:#304FFE;" width="16" height="67.39"/>
	<polygon style="fill:#304FFE;" points="155.21,273.37 171.21,273.37 171.21,247.68 196.9,247.68 196.9,231.68 171.21,231.68 
		171.21,205.98 155.21,205.98 155.21,231.68 129.51,231.68 129.51,247.68 155.21,247.68 	"/>
	<rect x="283.72" y="215.4" style="fill:#304FFE;" width="58.46" height="16"/>
	<rect x="283.72" y="247.96" style="fill:#304FFE;" width="58.46" height="16"/>
</g>
<g>
</g>
<g>
</g>
<g>
</g>
<g>
</g>
<g>
</g>
<g>
</g>
<g>
</g>
<g>
</g>
<g>
</g>
<g>
</g>
<g>
</g>
<g>
</g>
<g>
</g>
<g>
</g>
<g>
</g>
</svg>
